<svg xmlns="http://www.w3.org/2000/svg" xmlns:osb="http://www.openswatchbook.org/uri/2009/osb" xmlns:svg="http://www.w3.org/2000/svg" id="svg7384" width="16" height="16" version="1.1" viewBox="0 0 16 16"><metadata id="metadata90"/><title id="title9167">Gnome Symbolic Icon Theme</title><defs id="defs7386"><linearGradient id="linearGradient19282" gradientTransform="matrix(-2.7365795,0.28202934,-0.18908311,-0.99988321,239.54008,-879.45557)" osb:paint="solid"><stop id="stop19284" offset="0" stop-color="#666" stop-opacity="1"/></linearGradient></defs><g id="layer10" display="inline" transform="translate(-121,-527)"><path id="rect4890" fill="#bebebe" fill-opacity="1" fill-rule="nonzero" stroke="none" stroke-width="3" d="m 122.0002,529 c -0.554,0 -1,0.446 -1,1 v 10 c 0,0.554 0.446,1 1,1 h 14 c 0.554,0 1,-0.446 1,-1 v -10 c 0,-0.554 -0.446,-1 -1,-1 z m 1.25,2 h 1.5 c 0.1385,0 0.25,0.1115 0.25,0.25 v 1.5 c 0,0.1385 -0.1115,0.25 -0.25,0.25 h -1.5 c -0.1385,0 -0.25,-0.1115 -0.25,-0.25 v -1.5 c 0,-0.1385 0.1115,-0.25 0.25,-0.25 z m 3,0 h 1.5 c 0.1385,0 0.25,0.1115 0.25,0.25 v 1.5 c 0,0.1385 -0.1115,0.25 -0.25,0.25 h -1.5 c -0.1385,0 -0.25,-0.1115 -0.25,-0.25 v -1.5 c 0,-0.1385 0.1115,-0.25 0.25,-0.25 z m 3,0 h 1.5 c 0.1385,0 0.25,0.1115 0.25,0.25 v 1.5 c 0,0.1385 -0.1115,0.25 -0.25,0.25 h -1.5 c -0.1385,0 -0.25,-0.1115 -0.25,-0.25 v -1.5 c 0,-0.1385 0.1115,-0.25 0.25,-0.25 z m 3,0 h 1.5 c 0.1385,0 0.25,0.1115 0.25,0.25 v 1.5 c 0,0.1385 -0.1115,0.25 -0.25,0.25 h -1.5 c -0.1385,0 -0.25,-0.1115 -0.25,-0.25 v -1.5 c 0,-0.1385 0.1115,-0.25 0.25,-0.25 z m -8,3 h 1.5 c 0.1385,0 0.25,0.1115 0.25,0.25 v 1.5 c 0,0.1385 -0.1115,0.25 -0.25,0.25 h -1.5 c -0.1385,0 -0.25,-0.1115 -0.25,-0.25 v -1.5 c 0,-0.1385 0.1115,-0.25 0.25,-0.25 z m 3,0 h 1.5 c 0.1385,0 0.25,0.1115 0.25,0.25 v 1.5 c 0,0.1385 -0.1115,0.25 -0.25,0.25 h -1.5 c -0.1385,0 -0.25,-0.1115 -0.25,-0.25 v -1.5 c 0,-0.1385 0.1115,-0.25 0.25,-0.25 z m 3,0 h 1.5 c 0.1385,0 0.25,0.1115 0.25,0.25 v 1.5 c 0,0.1385 -0.1115,0.25 -0.25,0.25 h -1.5 c -0.1385,0 -0.25,-0.1115 -0.25,-0.25 v -1.5 c 0,-0.1385 0.1115,-0.25 0.25,-0.25 z m 3,0 h 1.5 c 0.1385,0 0.25,0.1115 0.25,0.25 v 1.5 c 0,0.1385 -0.1115,0.25 -0.25,0.25 h -1.5 c -0.1385,0 -0.25,-0.1115 -0.25,-0.25 v -1.5 c 0,-0.1385 0.1115,-0.25 0.25,-0.25 z m -10,3 h 1.5 c 0.1385,0 0.25,0.1115 0.25,0.25 v 1.5 c 0,0.1385 -0.1115,0.25 -0.25,0.25 h -1.5 c -0.1385,0 -0.25,-0.1115 -0.25,-0.25 v -1.5 c 0,-0.1385 0.1115,-0.25 0.25,-0.25 z m 3,0 h 5.5 c 0.1385,0 0.25,0.1115 0.25,0.25 v 1.5 c 0,0.1385 -0.1115,0.25 -0.25,0.25 h -5.5 c -0.1385,0 -0.25,-0.1115 -0.25,-0.25 v -1.5 c 0,-0.1385 0.1115,-0.25 0.25,-0.25 z m 7,0 h 2.5 c 0.1385,0 0.25,0.1115 0.25,0.25 v 1.5 c 0,0.1385 -0.1115,0.25 -0.25,0.25 h -2.5 c -0.1385,0 -0.25,-0.1115 -0.25,-0.25 v -1.5 c 0,-0.1385 0.1115,-0.25 0.25,-0.25 z" color="#bebebe" display="inline" enable-background="accumulate" overflow="visible" visibility="visible" style="marker:none"/></g></svg>