<svg xmlns="http://www.w3.org/2000/svg" xmlns:svg="http://www.w3.org/2000/svg" id="svg7384" width="16.031" height="16.031" version="1.1"><metadata id="metadata90"/><title id="title9167">Gnome Symbolic Icon Theme</title><g id="layer9" display="inline" transform="translate(-62.96895,-174.96875)"><path id="path3908" fill="#bebebe" fill-opacity="1" stroke="none" stroke-width="1" d="m -174,-39.984375 a 2.015625,2.015625 0 1 1 -4.03125,0 2.015625,2.015625 0 1 1 4.03125,0 z" color="#000" display="inline" enable-background="new" overflow="visible" transform="translate(241.0002,217)" visibility="visible" style="marker:none"/><path id="path3910" fill="#bebebe" fill-opacity="1" fill-rule="nonzero" stroke="none" stroke-width="1" d="m -174,-39.984375 a 2.015625,2.015625 0 1 1 -4.03125,0 2.015625,2.015625 0 1 1 4.03125,0 z" color="#000" display="inline" enable-background="new" overflow="visible" transform="translate(241.0002,228.9375)" visibility="visible" style="marker:none"/><path id="path3912" fill="#bebebe" fill-opacity="1" fill-rule="nonzero" stroke="none" stroke-width="1" d="m -174,-39.984375 a 2.015625,2.015625 0 1 1 -4.03125,0 2.015625,2.015625 0 1 1 4.03125,0 z" color="#000" display="inline" enable-background="new" overflow="visible" transform="translate(253.0002,228.9375)" visibility="visible" style="marker:none"/><path id="path3914" fill="#bebebe" fill-opacity="1" fill-rule="nonzero" stroke="none" stroke-width="1" d="m -174,-39.984375 a 2.015625,2.015625 0 1 1 -4.03125,0 2.015625,2.015625 0 1 1 4.03125,0 z" color="#000" display="inline" enable-background="new" overflow="visible" transform="translate(253.0002,216.96875)" visibility="visible" style="marker:none"/><path id="rect3916" fill="#bebebe" fill-opacity="1" stroke="none" stroke-width="2" d="m 64.03125,176.03125 0,1 0,11.96875 0,1 1,0 11.96875,0 1,0 0,-1 0,-11.96875 0,-1 -1,0 -11.96875,0 -1,0 z m 2,2 9.96875,0 0,9.96875 -9.96875,0 0,-9.96875 z" baseline-shift="baseline" color="#000" direction="ltr" display="inline" enable-background="new" font-family="Sans" font-size="medium" font-stretch="normal" font-style="normal" font-variant="normal" font-weight="normal" letter-spacing="normal" overflow="visible" text-anchor="start" text-decoration="none" visibility="visible" word-spacing="normal" writing-mode="lr-tb" style="text-indent:0;text-align:start;line-height:normal;text-transform:none;block-progression:tb;marker:none;-inkscape-font-specification:Sans"/><path id="rect3918" fill="#bebebe" fill-opacity="1" stroke="none" stroke-width="1" d="m 67.9375,180 0,0.5 0,5 0,0.5 0.5,0 5.0625,0 0.5,0 0,-0.5 0,-5 0,-0.5 -0.5,0 -5.0625,0 -0.5,0 z m 1,1 4.0625,0 0,4 -4.0625,0 0,-4 z" baseline-shift="baseline" color="#000" direction="ltr" display="inline" enable-background="new" font-family="Sans" font-size="medium" font-stretch="normal" font-style="normal" font-variant="normal" font-weight="normal" letter-spacing="normal" overflow="visible" text-anchor="start" text-decoration="none" visibility="visible" word-spacing="normal" writing-mode="lr-tb" style="text-indent:0;text-align:start;line-height:normal;text-transform:none;block-progression:tb;marker:none;-inkscape-font-specification:Sans"/><path id="path3937" fill="#bebebe" fill-opacity="1" stroke="none" stroke-width="1" d="m -166.5,-31.765625 a 1.265625,1.265625 0 1 1 -2.53125,0 1.265625,1.265625 0 1 1 2.53125,0 z" color="#000" display="inline" enable-background="new" overflow="visible" transform="matrix(1.1975309,0,0,1.1975309,274.38909,223.52469)" visibility="visible" style="marker:none"/><path id="path3939" fill="#bebebe" fill-opacity="1" stroke="none" stroke-width="1" d="m -166.5,-31.765625 a 1.265625,1.265625 0 1 1 -2.53125,0 1.265625,1.265625 0 1 1 2.53125,0 z" color="#000" display="inline" enable-background="new" overflow="visible" transform="matrix(1.1975309,0,0,1.1975309,269.38909,223.52469)" visibility="visible" style="marker:none"/><path id="path3941" fill="#bebebe" fill-opacity="1" stroke="none" stroke-width="1" d="m -166.5,-31.765625 a 1.265625,1.265625 0 1 1 -2.53125,0 1.265625,1.265625 0 1 1 2.53125,0 z" color="#000" display="inline" enable-background="new" overflow="visible" transform="matrix(1.1975309,0,0,1.1975309,269.38909,218.55594)" visibility="visible" style="marker:none"/><path id="path3943" fill="#bebebe" fill-opacity="1" stroke="none" stroke-width="1" d="m -166.5,-31.765625 a 1.265625,1.265625 0 1 1 -2.53125,0 1.265625,1.265625 0 1 1 2.53125,0 z" color="#000" display="inline" enable-background="new" overflow="visible" transform="matrix(1.1975309,0,0,1.1975309,274.45159,218.55594)" visibility="visible" style="marker:none"/><path id="path3945" fill="#bebebe" fill-opacity="1" stroke="none" stroke-width="1" d="m 73.84375,185.1875 -0.6875,0.6875 3.40625,3.4375 0.71875,-0.71875 -3.4375,-3.40625 z" baseline-shift="baseline" color="#000" direction="ltr" display="inline" enable-background="new" font-family="Sans" font-size="medium" font-stretch="normal" font-style="normal" font-variant="normal" font-weight="normal" letter-spacing="normal" overflow="visible" text-anchor="start" text-decoration="none" visibility="visible" word-spacing="normal" writing-mode="lr-tb" style="text-indent:0;text-align:start;line-height:normal;text-transform:none;block-progression:tb;marker:none;-inkscape-font-specification:Sans"/><path id="path3949" fill="#bebebe" fill-opacity="1" stroke="none" stroke-width="1" d="m 68.5625,185.1875 -3.40625,3.40625 0.6875,0.71875 3.4375,-3.4375 -0.71875,-0.6875 z" baseline-shift="baseline" color="#000" direction="ltr" display="inline" enable-background="new" font-family="Sans" font-size="medium" font-stretch="normal" font-style="normal" font-variant="normal" font-weight="normal" letter-spacing="normal" overflow="visible" text-anchor="start" text-decoration="none" visibility="visible" word-spacing="normal" writing-mode="lr-tb" style="text-indent:0;text-align:start;line-height:normal;text-transform:none;block-progression:tb;marker:none;-inkscape-font-specification:Sans"/><path id="path3953" fill="#bebebe" fill-opacity="1" stroke="none" stroke-width="1" d="m 76.5625,177.1875 -3.40625,3.40625 0.6875,0.71875 3.4375,-3.4375 -0.71875,-0.6875 z" baseline-shift="baseline" color="#000" direction="ltr" display="inline" enable-background="new" font-family="Sans" font-size="medium" font-stretch="normal" font-style="normal" font-variant="normal" font-weight="normal" letter-spacing="normal" overflow="visible" text-anchor="start" text-decoration="none" visibility="visible" word-spacing="normal" writing-mode="lr-tb" style="text-indent:0;text-align:start;line-height:normal;text-transform:none;block-progression:tb;marker:none;-inkscape-font-specification:Sans"/><path id="path3955" fill="#bebebe" fill-opacity="1" stroke="none" stroke-width="1" d="m 65.84375,177.1875 -0.6875,0.6875 3.40625,3.4375 0.71875,-0.71875 -3.4375,-3.40625 z" baseline-shift="baseline" color="#000" direction="ltr" display="inline" enable-background="new" font-family="Sans" font-size="medium" font-stretch="normal" font-style="normal" font-variant="normal" font-weight="normal" letter-spacing="normal" overflow="visible" text-anchor="start" text-decoration="none" visibility="visible" word-spacing="normal" writing-mode="lr-tb" style="text-indent:0;text-align:start;line-height:normal;text-transform:none;block-progression:tb;marker:none;-inkscape-font-specification:Sans"/></g></svg>